<?xml version="1.0" encoding="UTF-8"?>
<svg version="1.1" xmlns="http://www.w3.org/2000/svg" width="500" height="441">
<path d="M0 0 C5.50140564 3.78083876 10.76535141 7.86144633 16 12 C16.96421875 12.75023437 17.9284375 13.50046875 18.921875 14.2734375 C30.31388255 23.33985771 40.69247173 33.6148471 51 43.875 C51.69367676 44.56400391 52.38735352 45.25300781 53.10205078 45.96289062 C57.60453344 50.47950127 61.84533105 55.16349528 66 60 C67.0223041 61.16765995 68.04570929 62.33435696 69.0703125 63.5 C98.45212808 97.09827525 125.93554462 134.1335591 146.8125 173.6875 C147.23917969 174.49541992 147.66585937 175.30333984 148.10546875 176.13574219 C151 181.73296914 151 181.73296914 151 184 C151.66 184 152.32 184 153 184 C153.22945312 183.19949219 153.45890625 182.39898437 153.6953125 181.57421875 C155.34374578 177.05830122 157.54241776 173.0074811 159.875 168.8125 C160.35751221 167.94044922 160.84002441 167.06839844 161.3371582 166.16992188 C166.53388665 156.88449874 172.19280801 147.91276797 178 139 C178.69738281 137.92492187 179.39476562 136.84984375 180.11328125 135.7421875 C193.28164278 115.73064017 207.55995961 96.31917041 223 78 C223.88941214 76.93627251 224.77872941 75.8724657 225.66796875 74.80859375 C230.62685944 68.89491231 235.66177437 63.06583164 240.859375 57.359375 C242.21779502 55.86213834 243.5632542 54.35295592 244.890625 52.828125 C250.21164472 46.752945 255.86225413 41.03079501 261.5625 35.3125 C262.36606934 34.50433838 263.16963867 33.69617676 263.99755859 32.86352539 C290.88365329 6.04634113 326.54363932 -21.3125 366.04980469 -21.3125 C376.4485736 -21.15412484 383.35323599 -18.64885612 390.9609375 -11.390625 C400.53656572 -0.1640264 402.569321 14.50678572 402.5 28.75 C402.49890228 29.4375235 402.49780457 30.125047 402.49667358 30.83340454 C402.33835959 66.9847812 398.15022731 103.51423972 394.375 139.4375 C394.22812241 140.84931046 394.22812241 140.84931046 394.07827759 142.28964233 C391.12486929 170.36240837 386.26831701 195.20985827 367 217 C366.48308594 217.59941406 365.96617187 218.19882813 365.43359375 218.81640625 C342.16977285 243.94599725 306.85593146 249.60664345 274.3828125 250.88671875 C273.26648438 250.92410156 272.15015625 250.96148437 271 251 C272.47146484 251.43699219 272.47146484 251.43699219 273.97265625 251.8828125 C292.99436061 257.61951699 312.04618497 264.47393616 327 278 C327.84175781 278.73734375 328.68351562 279.4746875 329.55078125 280.234375 C340.2820968 290.20033117 347.00731595 302.45650262 348.2734375 317.1796875 C348.82607312 334.90653768 341.53526999 351.03883536 331 365 C330.06994141 366.23363281 330.06994141 366.23363281 329.12109375 367.4921875 C310.01288796 391.77333298 283.32143953 413.81834767 252.375 419.6875 C235.95545169 421.20782855 219.54571623 416.91211131 206.63671875 406.3828125 C203.59716701 403.73552211 200.79396728 400.90441693 198 398 C197.21238281 397.20851563 196.42476563 396.41703125 195.61328125 395.6015625 C177.53385746 376.60712425 166.86934249 351.27620348 158 327 C157.44598373 325.51667621 156.89135202 324.03358205 156.3359375 322.55078125 C153 313.5193407 153 313.5193407 153 310 C152.34 310 151.68 310 151 310 C150.76152344 311.23492187 150.52304688 312.46984375 150.27734375 313.7421875 C148.93487806 319.75221296 146.78926714 325.39399554 144.5625 331.125 C144.12292969 332.2579248 143.68335938 333.39084961 143.23046875 334.55810547 C130.70646244 366.29708615 113.86028042 401.18437517 81 415.8125 C64.57256874 422.27296456 47.99936386 420.79452569 31.9375 413.875 C19.72940652 408.36715559 9.08891431 400.77628703 -1 392 C-1.84175781 391.26910156 -2.68351562 390.53820312 -3.55078125 389.78515625 C-23.65833209 371.99169369 -41.43843849 351.48376234 -44.3359375 323.7890625 C-44.82774455 309.37533288 -40.18023045 296.68810877 -30.75 285.875 C-29.18509832 284.23224251 -27.60168695 282.60691268 -26 281 C-24.89205078 279.85724609 -24.89205078 279.85724609 -23.76171875 278.69140625 C-8.72710655 264.11162266 13.03514783 256.09869358 33 251 C32.22100342 250.96036133 31.44200684 250.92072266 30.6394043 250.87988281 C15.16723909 250.05494374 0.00206522 249.12897587 -15 245 C-15.9914502 244.73147217 -15.9914502 244.73147217 -17.00292969 244.45751953 C-41.08992583 237.72397273 -62.17501468 222.61138979 -75 201 C-82.00284121 188.26602815 -86.1603262 174.91162272 -87.9375 160.5 C-88.09661865 159.25645752 -88.2557373 158.01291504 -88.41967773 156.73168945 C-91.18339747 134.55435287 -93.05894094 112.26093632 -95 90 C-95.08677002 89.01277954 -95.17354004 88.02555908 -95.26293945 87.00842285 C-96.91487653 68.14626105 -98.25792435 49.31479305 -98.4375 30.375 C-98.44971588 29.69370026 -98.46193176 29.01240051 -98.47451782 28.31045532 C-98.69808445 13.75499712 -96.19888297 -0.84693668 -86.1875 -12.0234375 C-62.55354571 -34.60911156 -22.79780884 -14.70248874 0 0 Z " fill="#1085FE" transform="translate(98,21)"/>
</svg>
