<svg
  height="504px"
  preserveAspectRatio="none"
  viewBox="0 -22 504 482"
  width="504px"
  xmlns="http://www.w3.org/2000/svg"
>
  <path
    fill="white"
    d="M 250.346 32.177 L 430.326 133.818 L 434.374 308.657 C 434.374 308.657 257.329 444.248 257.607 403.965 C 57.885 343.682 75.022 236.382 75.022 336.382 L 76.376 136.806 L 200.346 32.177 Z"
  ></path>
  <g transform="matrix(1.890103, 0, 0, 1.890103, -27.438263, -27.043961)">
    <path
      fill="#374FBE"
      d="M273.336,124.488L215.469,23.816c-2.102-3.64-5.985-6.325-10.188-6.325H89.545 c-4.204,0-8.088,2.685-10.19,6.325l-57.867,100.45c-2.102,3.641-2.102,8.236,0,11.877l57.867,99.847 c2.102,3.64,5.986,5.501,10.19,5.501h115.735c4.203,0,8.087-1.805,10.188-5.446l57.867-100.01 C275.439,132.396,275.439,128.128,273.336,124.488 M225.419,172.898c0,1.48-0.891,2.849-2.174,3.59l-73.71,42.527 c-1.282,0.74-2.888,0.74-4.17,0l-73.767-42.527c-1.282-0.741-2.179-2.109-2.179-3.59V87.843c0-1.481,0.884-2.849,2.167-3.59 l73.707-42.527c1.282-0.741,2.886-0.741,4.168,0l73.772,42.527c1.283,0.741,2.186,2.109,2.186,3.59V172.898z"
    ></path>
  </g>
  <path
    d="M 163.217 179.207 L 163.217 189.362 L 195.611 189.362 L 195.611 281.562 L 218.599 281.562 L 218.599 189.362 L 250.993 189.362 L 250.993 179.394 C 250.993 173.788 250.993 169.24 250.744 169.115 C 250.744 168.928 230.996 168.866 207.012 168.866 L 163.403 169.053 L 163.403 179.27 L 163.217 179.207 Z M 308.805 168.804 C 315.16 170.299 320.019 173.165 324.38 177.712 C 326.685 180.204 330.111 184.565 330.36 185.686 C 330.36 186.06 319.583 193.349 313.041 197.398 C 312.792 197.585 311.796 196.526 310.799 194.906 C 307.559 190.296 304.258 188.303 299.087 187.929 C 291.611 187.431 286.627 191.355 286.627 197.897 C 286.627 199.89 287.001 201.012 287.749 202.631 C 289.431 206.058 292.546 208.113 302.202 212.35 C 320.019 220.012 327.744 225.058 332.416 232.285 C 337.711 240.383 338.895 253.092 335.344 262.624 C 331.357 273.027 321.639 280.067 307.746 282.372 C 303.385 283.119 293.418 282.995 288.746 282.185 C 278.778 280.316 269.247 275.332 263.391 268.916 C 261.086 266.424 256.662 259.758 256.912 259.322 L 259.279 257.827 L 268.624 252.407 L 275.663 248.295 L 277.283 250.476 C 279.339 253.715 283.949 258.076 286.627 259.571 C 294.726 263.745 305.566 263.184 310.923 258.325 C 313.228 256.207 314.225 253.964 314.225 250.849 C 314.225 247.984 313.789 246.675 312.356 244.495 C 310.363 241.754 306.376 239.511 295.162 234.527 C 282.267 229.045 276.784 225.557 271.676 220.199 C 268.748 216.96 266.069 211.914 264.823 207.74 C 263.889 204.126 263.577 195.28 264.45 191.729 C 267.128 179.27 276.535 170.548 289.991 168.056 C 294.352 167.184 304.631 167.558 308.93 168.679 L 308.805 168.804 Z"
    fill="#374fbe"
  ></path>
</svg>
