<?xml version="1.0" encoding="UTF-8" standalone="no"?>
<svg xmlns="http://www.w3.org/2000/svg" version="1.0" width="266.667" height="266.667" viewBox="0 0 200 200">
  <rect fill="#fff" width="199" height="199" />
  <path d="M0 100v100h200V0H0zm164.5-6.092c5.815 2.224 11.628 9.183 13.5 11.492-1.518 1.358-11.225 8.685-12.634 9.766-.724-.499-2.433-1.932-4.666-3.666-3.128-2.428-4.3-3.5-7.5-3.5-7.6 0-11.8 6.8-7.8 12.6.8 1.1 7.5 5 14.9 8.7 19.1 9.4 23.7 15.1 23.7 29.3-.1 10.3-5.3 17.9-15.5 22.6-3.66 1.318-6.7 2.3-15 2.2-11.7 0-20.1-3.4-25.3-7.9-4.805-4.667-7.62-10.04-8.1-10.9.789-.507 3.6-2.2 7.4-4.4l6.98-4.158 3.32 3.858c8.6 10.4 27.2 9 27.2-2 0-4.7-4.1-8.3-13.8-12.3-3.7-1.5-9.1-4.2-12-5.9-19-11.3-18.5-36.9.8-45.6 5.7-2.6 16.585-3.673 24.5-.192zM115 101v8H89v74H71v-74H44c-.174-5.462 0-9.941.006-16.118L115 93z" fill="#007acc"/>
</svg>
