<?xml version="1.0" encoding="UTF-8" standalone="no"?>
<svg version="1.0" xmlns="http://www.w3.org/2000/svg" width="266.667" height="266.667" viewBox="0 0 200 200"><path d="M0 100v100h200V0H0v100zm164.5-6.3c4.9 1.6 13.5 9.1 13.5 11.7 0 1.4-11.1 9.6-12.8 9.6-.6 0-2.6-1.6-4.5-3.5-2.8-2.8-4.3-3.5-7.5-3.5-7.6 0-11.8 6.8-7.8 12.6.8 1.1 7.5 5 14.9 8.7 19.1 9.4 23.7 15.1 23.7 29.3-.1 10.3-5.3 17.9-15.5 22.6-4.2 1.9-6.7 2.3-15 2.2-11.7 0-18.6-2.2-25.3-7.9-3.7-3.3-8.9-10.2-8.1-10.9.2-.2 3.6-2.2 7.4-4.4l7-4.2 3.3 3.9c8.6 10.4 27.2 9 27.2-2 0-4.7-4.1-8.3-13.8-12.3-3.7-1.5-9.1-4.2-12-5.9-19-11.3-18.5-36.9.8-45.6 5.7-2.6 17.5-2.8 24.5-.4zM115 101v8H89v74H71v-74H44v-4.3c0-2.3.3-5.9.6-8l.7-3.7H115v8z" fill="#443fd4"/></svg>