<?xml version="1.0" standalone="no"?>
<!DOCTYPE svg PUBLIC "-//W3C//DTD SVG 20010904//EN"
 "http://www.w3.org/TR/2001/REC-SVG-20010904/DTD/svg10.dtd">
<svg version="1.0" xmlns="http://www.w3.org/2000/svg"
 width="256.000000pt" height="256.000000pt" viewBox="0 0 256.000000 256.000000"
 preserveAspectRatio="xMidYMid meet">
<metadata>
Created by potrace 1.14, written by Peter Selinger 2001-2017
</metadata>
<g transform="translate(0.000000,256.000000) scale(0.100000,-0.100000)"
fill="#000000" stroke="none">
<path d="M687 2302 c-36 -22 -597 -991 -597 -1032 0 -17 79 -164 217 -401 350
-605 352 -608 383 -624 43 -22 1137 -22 1180 0 31 16 38 28 380 620 118 203
216 382 218 397 4 29 5 29 -343 633 -92 160 -181 314 -197 343 -17 29 -43 59
-59 67 -24 13 -116 15 -591 15 -518 0 -565 -1 -591 -18z m947 -398 c188 -108
349 -204 359 -212 16 -14 17 -47 17 -421 0 -223 -4 -411 -8 -417 -11 -18 -702
-414 -721 -414 -20 0 -712 396 -723 413 -4 7 -8 195 -8 418 0 365 2 408 16
420 30 25 699 408 713 409 8 0 167 -88 355 -196z"/>
<path d="M850 1470 l0 -50 80 0 80 0 0 -230 0 -230 55 0 55 0 0 230 0 230 81
0 80 0 -3 48 -3 47 -212 3 -213 2 0 -50z"/>
<path d="M1420 1502 c-49 -26 -84 -97 -75 -151 11 -68 42 -102 131 -146 98
-48 114 -61 114 -90 0 -63 -105 -79 -160 -24 l-31 32 -42 -23 c-23 -13 -44
-25 -46 -26 -2 -2 8 -19 22 -38 39 -51 99 -76 183 -76 82 0 127 20 162 71 20
29 23 44 20 96 -5 80 -30 108 -150 169 -84 42 -105 64 -93 96 8 21 51 39 72
31 10 -3 28 -15 39 -25 22 -19 22 -19 63 8 38 25 40 29 28 48 -29 43 -65 60
-135 64 -51 2 -75 -1 -102 -16z"/>
</g>
</svg>
